# xmcd
#
# Track frame offsets:
#	225
#	13423
#	26072
#	39137
#	51950
#	68163
#	79979
#	90827
#	105504
#	121281
#	131555
#	149574
#	161920
#	172717
#	187537
#
# Disc length: 2665
#
# Revision: 4
# Processed by: cddbd v1.5.1PL0 Copyright (c) Steve Scherf et al.
# Submitted via: Audio-CD-Archiv 2.10.438
# Normalized: r2:TDELIM( - ),TSWAP
#
DISCID=bd0a660f
DTITLE=Various Artist - Country Highlights CD2
DYEAR=1900
DGENRE=country
TTITLE0=Johnny Paycheck - Drinkin' And Drivin'
TTITLE1=Susan raye - L.A. international Airport
TTITLE2=Hank Williams - Jambalaya-On The bayou
TTITLE3=Juice Newton - They Never Made It To Memphis
TTITLE4=Patsy Cline and Mila Mason - Grezy Dreams
TTITLE5=Johnny Preston - Running Bear
TTITLE6=Gene Pitney and George Jones - Why Baby Why
TTITLE7=Bellamy Brothers - Dancin' Cowboys
TTITLE8=Billie Joe Spears - Blanket On The Ground
TTITLE9=Buddy Knox - Devil Woman
TTITLE10=Ricky Nelson - Garden Party
TTITLE11=Tammy Wynette - Stand By Your Man
TTITLE12=Roger Miller - King Of The Road
TTITLE13=Highway Cowboys - Banjo Fever
TTITLE14=Johnny Cash - Ring Of Fire
EXTD=
EXTT0=
EXTT1=
EXTT2=
EXTT3=
EXTT4=
EXTT5=
EXTT6=
EXTT7=
EXTT8=
EXTT9=
EXTT10=
EXTT11=
EXTT12=
EXTT13=
EXTT14=
PLAYORDER=
